<svg width="267" height="451" viewBox="0 0 267 451" fill="none" xmlns="http://www.w3.org/2000/svg">
<path d="M125.798 156L-1.48608 108.786C-5.36186 107.377 -9.58999 109.315 -10.9994 113.191L-96.9712 344.592C-98.3806 348.468 -96.4427 352.696 -92.5669 354.106L34.7172 401.32C38.593 402.729 42.8212 400.791 44.2305 396.915L130.202 165.426C131.612 161.638 129.674 157.41 125.798 156Z" fill="#593F8F"/>
<path opacity="0.09" d="M49.5158 274.564C46.3447 274.564 43.0855 274.476 39.7382 274.3C-9.67798 271.569 -50.0213 249.548 -68.167 215.458C-97.1473 161.021 -68.6956 85.1792 -25.093 61.3079C-3.07155 49.1521 16.0431 49.5044 28.199 51.9708C48.9872 56.1109 64.3142 65.7122 71.3611 78.9251C78.9364 93.1069 74.8845 106.408 70.5683 120.414C66.6925 133.01 62.7287 145.959 67.4853 159.964C71.7134 172.472 82.7242 176.348 94.4396 180.488C106.331 184.716 118.663 189.033 125.27 202.686C132.228 217.132 131.348 236.863 123.332 248.755C112.409 264.61 83.5169 274.564 49.5158 274.564ZM14.4576 51.6185C3.62299 51.6185 -9.85416 54.0849 -24.5645 62.1888C-67.7266 85.8839 -95.9141 161.109 -67.1981 215.018C-49.2286 248.843 -9.14947 270.6 39.9144 273.331C77.6152 275.445 110.824 265.315 122.539 248.226C130.379 236.687 131.26 217.308 124.389 203.214C117.959 189.913 105.891 185.685 94.1753 181.545C82.2837 177.317 71.0087 173.353 66.6044 160.405C61.7597 146.047 65.8117 132.922 69.6874 120.149C73.9156 106.32 77.9675 93.195 70.5683 79.3655C63.6976 66.4169 48.5468 56.9917 28.1109 52.9398C24.147 52.147 19.5665 51.6185 14.4576 51.6185Z" fill="#AAAAD5"/>
<path opacity="0.2" d="M94.9682 144.549L80.8744 153.975L-42.1817 236.599L-61.6487 249.724L-34.8705 177.405L-15.3155 164.281L28.8156 134.596L42.9094 125.17L94.9682 144.549Z" fill="#EEEDF3"/>
<path opacity="0.2" d="M122.979 154.943L108.886 164.369L-56.6278 275.533L-76.1829 288.57L-66.6696 263.113L-47.2026 250.076V249.988L90.5638 157.586L104.658 148.073L122.979 154.943Z" fill="#EEEDF3"/>
<path d="M125.798 156L122.979 154.943L104.657 148.161L94.9679 144.549L42.9091 125.258L-1.48623 108.786C-5.27393 107.377 -9.59014 109.315 -10.9995 113.191L-34.8708 177.493L-61.737 249.812L-66.7579 263.289L-76.1831 288.746L-96.9714 344.769C-97.2356 345.473 -97.3237 346.178 -97.4118 346.883C-97.6761 350.054 -95.7382 353.137 -92.5671 354.282L-68.96 363.09L-51.1667 369.697L-4.12881 387.138L13.0479 393.48L34.7171 401.496C38.5048 402.905 42.821 400.967 44.2304 397.18L128.617 169.918L130.202 165.69C131.612 161.638 129.674 157.41 125.798 156ZM113.73 170.358L111.968 175.203L39.2975 371.018C38.5048 373.044 36.2145 374.189 34.1005 373.396L18.1569 367.495L-1.13388 360.36L-40.9487 345.561L-59.1825 338.779L-73.7167 333.405C-75.3022 332.789 -76.2712 331.38 -76.2712 329.794C-76.2712 329.265 -76.2712 328.737 -76.0069 328.208L-56.4518 275.621L-47.0267 250.164L-42.0058 236.687L-15.1395 164.369L-1.48623 127.637C-0.693459 125.611 1.59678 124.466 3.62276 125.258L28.9915 134.684L81.0503 153.974L90.7397 157.586L109.062 164.369L111.44 165.249C113.466 166.042 114.523 168.332 113.73 170.358Z" fill="#EEEDF3"/>
<path d="M153.457 387.578L150.638 370.401L158.39 368.023L159.623 386.345L153.457 387.578Z" fill="#D7DDE9"/>
<path d="M159.887 384.495C160.416 384.583 160.856 384.759 161.297 385.111C164.027 387.402 172.396 391.454 176.624 392.07C181.204 392.775 181.468 394.977 174.95 394.977C168.52 394.977 163.763 394.36 160.944 394.448C158.038 394.537 158.83 394.977 151.783 394.977C146.322 394.977 148.084 388.018 150.022 384.847C150.638 383.878 151.431 383.35 152.576 383.438L159.887 384.495Z" fill="#3F3F3F"/>
<path d="M128.529 371.546L139.275 357.893L146.234 362.033L133.638 375.246L128.529 371.546Z" fill="#D7DDE9"/>
<path d="M135.223 374.189C135.487 374.629 135.752 375.07 135.752 375.598C135.928 379.122 138.659 388.283 141.918 391.189C145.177 394.184 143.063 394.889 137.778 392.423C131.964 389.692 130.643 383.79 128.617 381.764C126.591 379.738 126.767 380.531 122.01 375.334C118.311 371.37 124.565 367.935 128.264 367.142C129.41 366.878 130.29 367.142 130.995 368.111L135.223 374.189Z" fill="#3F3F3F"/>
<path d="M123.684 81.2153C123.684 81.2153 121.57 95.3091 125.622 101.827C129.674 108.346 130.29 109.315 130.29 109.315" fill="#ED8C61"/>
<path d="M134.078 115.569C132.933 116.274 131.612 116.626 130.379 116.626C127.912 116.626 125.446 115.393 124.125 113.015C124.037 112.926 123.332 111.693 119.544 105.703C116.902 101.475 116.021 95.7497 115.933 90.7288C115.757 85.796 116.285 81.5678 116.549 80.1585C117.166 76.1946 120.866 73.3759 124.917 73.9925C128.881 74.6091 131.7 78.3087 131.083 82.3606C130.731 84.4747 130.643 86.9411 130.643 89.2313C130.643 91.6096 130.819 93.8999 131.172 95.5735C131.348 96.5425 131.612 97.4233 131.964 97.9518C136.104 104.558 136.721 105.615 136.721 105.615C138.747 109.051 137.602 113.543 134.078 115.569Z" fill="#E8E8E8"/>
<path d="M107.036 196.256C108.533 175.203 101.486 122.968 97.8749 102.18C97.3464 99.0089 99.7247 96.1021 102.984 96.1021H146.234C148.524 96.1021 150.638 97.6876 151.255 99.8897C156.188 118.74 159.359 196.168 159.359 196.168H107.036V196.256Z" fill="#3F3F3F"/>
<path d="M178.474 152.477C177.769 148.513 172.924 138.383 167.551 127.813C161.825 116.626 155.395 104.822 152.4 99.5371C150.726 96.5422 146.939 95.4851 143.944 97.0707C140.949 98.7443 139.892 102.532 141.477 105.527C146.058 113.807 150.726 122.528 154.867 130.367C159.535 139.352 164.027 144.813 165.877 149.218C162.53 152.124 154.162 152.389 147.555 151.948C145.706 151.772 138.659 151.244 133.99 155.56C132.14 157.233 130.026 160.316 130.202 165.161C130.379 168.508 130.819 169.83 133.814 171.327C135.047 171.944 136.633 172.032 137.954 171.944C141.389 171.503 141.654 169.654 141.654 165.69C141.654 162.871 143.151 160.052 143.151 160.052C143.151 160.052 153.193 162.519 161.561 163.576C169.929 164.633 173.365 162.959 176.448 159.524C178.209 157.498 178.914 154.943 178.474 152.477Z" fill="#E8E8E8"/>
<path d="M109.326 230.257C109.326 230.257 102.984 218.63 107.036 196.256H159.271C159.271 196.256 159.976 213.256 158.831 230.257H109.326Z" fill="#996CF4"/>
<path d="M167.462 127.813L161.385 129.046L154.866 130.367C150.814 122.527 146.058 113.719 141.477 105.527C139.804 102.532 140.949 98.7443 143.944 97.0707C146.938 95.397 150.726 96.5421 152.4 99.5371C155.307 104.822 161.737 116.626 167.462 127.813Z" fill="black" fill-opacity="0.26"/>
<path d="M108.709 101.035C107.917 97.6876 104.481 95.6617 101.222 96.5425C86.2475 100.242 75.8534 103.589 68.6303 106.672C51.9821 113.719 52.1583 118.916 52.1583 121.559C52.2464 124.554 52.863 130.456 88.7139 143.492C88.7139 144.549 87.5688 148.601 86.8641 149.923C85.1905 152.917 86.9522 155.824 88.7139 158.731C89.3305 159.7 90.7399 160.933 92.4135 160.933C94.6157 160.933 97.3463 158.115 97.6987 155.824C99.02 147.456 98.8438 142.523 98.4034 141.554C98.4034 141.466 98.3153 141.378 98.3153 141.29C98.1391 141.026 98.051 140.762 97.8748 140.497C97.7868 140.321 97.6106 140.233 97.5225 140.057C97.3463 139.881 97.2583 139.705 97.0821 139.617C96.8178 139.352 96.5536 139.176 96.2893 139C96.2012 139 96.2012 138.912 96.1131 138.912C95.6727 138.648 95.2323 138.383 94.7918 138.207C82.636 133.186 71.2729 125.082 66.252 121.559C68.0137 120.59 70.4801 119.357 73.5631 118.212C81.2266 115.129 92.5016 111.517 104.041 108.698C107.476 107.729 109.502 104.382 108.709 101.035Z" fill="#E8E8E8"/>
<path d="M168.432 125.082L160.064 126.668L153.545 127.901L147.996 128.958C140.861 114.952 139.187 111.781 138.923 107.025C138.659 101.652 140.068 98.9208 143.591 96.9829C147.115 95.0451 151.519 96.2783 153.457 99.8017C153.633 100.066 161.209 110.901 168.432 125.082Z" fill="#3F3F3F"/>
<path d="M191.158 299.316C190.365 304.425 187.635 309.975 183.759 316.757C177.24 328.032 167.287 340.629 158.302 351.111C152.048 358.422 146.322 364.764 142.711 369.08C141.125 370.93 139.892 372.428 139.187 373.396L131.788 363.883C134.519 360.007 137.073 354.81 140.244 349.966C140.332 349.878 140.421 349.701 140.509 349.613C146.498 340.54 152.929 330.322 158.038 320.985C158.214 320.633 158.39 320.369 158.566 320.016C164.028 310.151 168.08 301.43 168.872 296.321C170.282 287.248 156.628 258.885 143.151 233.868C141.654 230.962 140.068 228.143 138.571 225.412C138.042 224.443 137.778 223.474 137.69 222.417C137.338 217.837 140.685 212.552 144.825 210.261C149.846 207.443 156.364 206.033 159.183 211.054C164.908 221.448 194.593 277.03 191.158 299.316Z" fill="#996CF4"/>
<path d="M158.302 351.11C152.048 358.422 146.322 364.764 142.71 369.08C142.094 363.971 141.477 358.422 140.861 352.784C140.773 351.727 140.596 350.582 140.508 349.525C146.498 340.452 152.928 330.234 158.037 320.897C158.39 330.146 158.39 340.981 158.302 351.11Z" fill="black" fill-opacity="0.15"/>
<path d="M156.981 302.135C154.426 281.259 136.897 225.148 134.166 218.982C131.876 213.697 119.192 212.552 113.906 214.93C108.621 217.22 106.243 223.386 108.533 228.671C115.58 244.703 135.576 287.601 137.602 302.752C138.747 311.824 140.332 330.058 143.151 345.649C145.177 356.484 147.203 367.054 148.7 374.718C150.022 381.412 150.022 380.179 150.11 380.796L162.618 378.858C162.618 378.858 159.975 326.799 156.981 302.135Z" fill="#996CF4"/>
<path d="M104.129 108.522C92.5897 111.341 81.3147 114.952 73.6512 118.035L68.5422 106.584C75.7653 103.589 86.1594 100.154 101.134 96.4541C104.481 95.6614 107.829 97.6873 108.621 100.947C109.502 104.382 107.476 107.729 104.129 108.522Z" fill="black" fill-opacity="0.26"/>
<path d="M101.31 96.2783C105.274 95.6617 108.181 97.5995 109.238 101.475C110.295 105.351 107.653 108.346 104.129 110.372C99.901 112.838 98.4035 113.367 80.5221 119.533L70.5684 105.792C93.4707 96.8949 94.6158 97.2472 101.31 96.2783Z" fill="#3F3F3F"/>
<path d="M131.084 95.5735C130.731 95.5735 130.379 95.5735 130.115 95.5735C124.741 95.5735 119.808 93.8118 115.933 90.7288C115.757 85.796 116.285 81.5678 116.549 80.1585C117.166 76.1946 120.866 73.3759 124.917 73.9925C128.881 74.6091 131.7 78.3087 131.084 82.3606C130.731 84.4747 130.643 86.9411 130.643 89.2313C130.467 91.5216 130.643 93.8118 131.084 95.5735Z" fill="black" fill-opacity="0.26"/>
<path d="M151.784 69.5C148.877 82.9771 141.389 92.8428 128.441 92.8428C115.58 92.8428 107.476 83.0652 105.098 69.5C102.984 56.8156 115.58 44.3955 128.441 44.3955C141.478 44.3074 154.514 56.9037 151.784 69.5Z" fill="#E8E8E8"/>
<path d="M153.545 380.884L153.457 380.531C149.934 358.686 144.561 325.742 141.918 304.954C139.98 289.803 121.218 244.879 114.171 228.847C114.083 228.759 114.083 228.583 114.083 228.495C114.083 228.407 114.083 228.407 113.995 228.319C112.85 225.236 109.414 213.785 112.674 195.727L113.731 195.903C110.471 213.697 113.907 224.883 114.964 227.966C114.964 228.055 115.052 228.143 115.052 228.231C115.052 228.319 115.052 228.407 115.14 228.495C122.187 244.527 140.949 289.627 142.887 304.866C145.618 325.566 150.903 358.598 154.426 380.443L154.514 380.796L153.545 380.884Z" fill="white" fill-opacity="0.13"/>
<path d="M136.809 96.1899C136.809 99.361 135.576 104.646 127.296 104.646C121.306 104.646 113.73 102.092 110.912 97.247L110.295 96.1899H136.809Z" fill="#26353A"/>
<path d="M112.761 96.1899C114.963 100.066 121.57 102.532 127.295 102.532C133.021 102.532 134.695 99.7134 134.695 96.1899H112.761Z" fill="#E8E8E8"/>
<path d="M144.12 161.286C144.12 161.197 144.472 157.674 140.773 152.565L144.208 150.539C148.524 156.969 148.084 161.55 148.084 161.814L144.12 161.286Z" fill="#82AACE"/>
<path d="M141.477 150.627C143.415 149.746 145.97 150.187 147.291 151.596C148.524 153.006 147.996 154.943 145.97 155.824C144.032 156.705 141.477 156.265 140.156 154.855C138.923 153.358 139.451 151.508 141.477 150.627Z" fill="#4E7DB0"/>
<path d="M151.255 52.2351C144.208 40.872 126.855 39.9911 123.508 40.1673C121.746 40.2554 117.871 41.3124 116.197 43.955C116.109 42.1052 116.197 40.4316 116.197 40.4316C114.7 42.2814 114.435 43.8669 114.7 45.1001C113.643 43.6907 112.938 42.1933 112.938 42.1933C112.674 44.1312 113.202 45.2763 113.995 45.8929C109.238 47.038 103.16 53.7325 105.274 67.4739C106.155 73.4638 119.72 68.8833 123.508 62.8935C126.063 67.0335 131.172 67.9144 131.172 67.9144C129.41 66.1526 127.824 63.5101 126.591 60.8675C133.814 65.2718 143.416 70.0284 144.561 72.9353C144.561 72.9353 146.675 68.2667 145.089 65.2718C145.089 65.2718 150.815 66.6812 151.519 72.4067C151.431 72.2306 158.743 64.3909 151.255 52.2351Z" fill="#424344"/>
<path d="M134.387 195.699L133.344 195.867L139.048 231.172L140.091 231.004L134.387 195.699Z" fill="white" fill-opacity="0.13"/>
<path d="M138.482 224.443L138.306 223.386C138.306 223.386 140.508 223.034 141.653 221.36C142.358 220.391 142.534 219.158 142.358 217.749L138.747 195.375L139.804 195.199L143.415 217.573C143.679 219.334 143.415 220.832 142.534 221.977C141.125 224.091 138.57 224.443 138.482 224.443Z" fill="white" fill-opacity="0.13"/>
<path d="M104.393 68.0905C103.336 70.3808 103.512 72.8472 104.481 74.9612C105.626 77.4276 109.238 77.2515 110.295 74.785L113.29 68.0905C114.435 65.6241 112.145 62.8934 109.502 63.5981C107.3 64.3028 105.362 65.8884 104.393 68.0905Z" fill="#E8E8E8"/>
<path d="M-11.782 245.096L53.9765 204.581C55.4493 203.678 57.3348 203.765 58.7138 204.831C64.9613 209.642 70.5428 214.52 74.2669 218.62C74.2669 218.62 77.4751 221.905 78.8634 223.988C81.1054 226.831 82.1842 230.547 82.1842 234.158C82.1842 238.21 81.0022 242.042 78.6477 245.105C78.113 245.653 76.0774 248.063 74.1543 250.032C62.9351 262.285 33.6486 282.528 18.2456 288.664C16.0036 289.653 10.0187 291.718 6.91372 291.833C3.92128 291.833 1.03204 291.18 -1.74464 289.749C-5.1592 287.781 -7.83269 284.727 -9.3336 281.107C-10.2998 278.591 -11.7913 271.043 -11.7913 270.822C-12.7575 265.435 -13.4799 257.868 -13.8363 249.033C-13.902 247.448 -13.1046 245.912 -11.782 245.096Z" fill="#FCBDEB"/>
<path opacity="0.4" d="M-7.38471 223.274C-10.2833 225.069 -13.9324 222.774 -13.7917 219.327C-13.4446 211.241 -12.8443 204.116 -12.1126 198.815C-12 198.7 -10.5085 189.299 -8.79181 186.12C-5.79938 180.214 0.0729218 176.604 6.38611 176.604H6.91143C10.9826 176.709 19.641 180.32 19.641 180.541C24.003 182.356 29.6971 185.429 35.8226 189.126C38.5806 190.797 38.6462 194.897 35.8883 196.597L-7.38471 223.274Z" fill="#F089D3"/>
</svg>
