<svg width="36" height="37" viewBox="0 0 36 37" fill="none" xmlns="http://www.w3.org/2000/svg">
<path fill-rule="evenodd" clip-rule="evenodd" d="M16.7348 31.8354L7.09552 26.2701C3.55479 24.2259 1.57683 21.3787 5.32017 16.6769L10.246 10.2198C12.2045 7.9261 14.4102 7.88899 15.8477 8.71889L27.6008 15.5046C29.0593 16.3467 29.9922 18.2945 29.1017 21.1062L25.9727 28.6006C23.9918 33.5449 20.2755 33.8796 16.7348 31.8354Z" stroke="white" stroke-width="2" stroke-linecap="round" stroke-linejoin="round"/>
<path opacity="0.4" d="M26.8278 14.72C28.4185 11.9648 27.4745 8.4417 24.7193 6.85099V6.85099C23.3958 6.07937 21.8194 5.86674 20.3388 6.26013C18.8582 6.65351 17.5952 7.6205 16.8292 8.94727V8.94727" stroke="white" stroke-width="2" stroke-linecap="round" stroke-linejoin="round"/>
<path d="M22.261 19.0168L22.2082 18.9863" stroke="white" stroke-width="2" stroke-linecap="round" stroke-linejoin="round"/>
<path d="M15.5286 15.1296L15.4757 15.0991" stroke="white" stroke-width="2" stroke-linecap="round" stroke-linejoin="round"/>
</svg>
