<svg width="462" height="462" viewBox="0 0 462 462" fill="none" xmlns="http://www.w3.org/2000/svg">
<path d="M211.759 136.764C209.655 139.3 209.844 142.998 209.869 143.401C210.017 145.798 211.014 147.613 211.729 148.717C218.724 159.513 229.664 165.576 229.664 165.576C233.933 169.096 238.596 172.7 243.667 176.303C250.067 180.85 256.269 184.796 262.129 188.216C263.211 182.331 264.292 176.447 265.374 170.562C256.503 163.309 249.317 157.372 243.819 153.021C240.701 150.553 237.255 147.73 233.953 142.94C231.866 139.913 232.405 139.722 231.068 138.304C226.232 133.178 215.712 132.002 211.759 136.764Z" fill="#343434"/>
<path opacity="0.12" d="M211.759 136.764C209.655 139.3 209.844 142.998 209.869 143.401C210.017 145.798 211.014 147.613 211.729 148.717C218.724 159.513 229.664 165.576 229.664 165.576C233.933 169.096 238.596 172.7 243.667 176.303C250.067 180.85 256.269 184.796 262.129 188.216C263.211 182.331 264.292 176.447 265.374 170.562C256.503 163.309 249.317 157.372 243.819 153.021C240.701 150.553 237.255 147.73 233.953 142.94C231.866 139.913 232.405 139.722 231.068 138.304C226.232 133.178 215.712 132.002 211.759 136.764Z" fill="#343434"/>
<path d="M183.181 87.4986C188.385 87.4986 192.604 83.2795 192.604 78.075C192.604 72.8705 188.385 68.6514 183.181 68.6514C177.976 68.6514 173.757 72.8705 173.757 78.075C173.757 83.2795 177.976 87.4986 183.181 87.4986Z" fill="#424344"/>
<path d="M192.604 84.2369C197.809 84.2369 202.028 80.0178 202.028 74.8133C202.028 69.6088 197.809 65.3896 192.604 65.3896C187.4 65.3896 183.181 69.6088 183.181 74.8133C183.181 80.0178 187.4 84.2369 192.604 84.2369Z" fill="#424344"/>
<path d="M202.029 89.6735C207.233 89.6735 211.452 85.4543 211.452 80.2498C211.452 75.0453 207.233 70.8262 202.029 70.8262C196.824 70.8262 192.605 75.0453 192.605 80.2498C192.605 85.4543 196.824 89.6735 202.029 89.6735Z" fill="#424344"/>
<path d="M211.451 96.9225C216.656 96.9225 220.875 92.7034 220.875 87.4988C220.875 82.2943 216.656 78.0752 211.451 78.0752C206.247 78.0752 202.028 82.2943 202.028 87.4988C202.028 92.7034 206.247 96.9225 211.451 96.9225Z" fill="#424344"/>
<path d="M218.339 108.521C223.543 108.521 227.762 104.302 227.762 99.097C227.762 93.8924 223.543 89.6733 218.339 89.6733C213.134 89.6733 208.915 93.8924 208.915 99.097C208.915 104.302 213.134 108.521 218.339 108.521Z" fill="#424344"/>
<path d="M215.8 115.77C221.005 115.77 225.224 111.551 225.224 106.346C225.224 101.141 221.005 96.9224 215.8 96.9224C210.596 96.9224 206.377 101.141 206.377 106.346C206.377 111.551 210.596 115.77 215.8 115.77Z" fill="#424344"/>
<path d="M211.451 125.193C216.656 125.193 220.875 120.974 220.875 115.77C220.875 110.565 216.656 106.346 211.451 106.346C206.247 106.346 202.028 110.565 202.028 115.77C202.028 120.974 206.247 125.193 211.451 125.193Z" fill="#424344"/>
<path d="M202.029 132.091C207.233 132.091 211.452 127.872 211.452 122.667C211.452 117.463 207.233 113.244 202.029 113.244C196.824 113.244 192.605 117.463 192.605 122.667C192.605 127.872 196.824 132.091 202.029 132.091Z" fill="#424344"/>
<path d="M195.141 134.617C200.346 134.617 204.565 130.398 204.565 125.193C204.565 119.989 200.346 115.77 195.141 115.77C189.937 115.77 185.718 119.989 185.718 125.193C185.718 130.398 189.937 134.617 195.141 134.617Z" fill="#424344"/>
<path d="M190.43 134.617C195.635 134.617 199.854 130.398 199.854 125.193C199.854 119.989 195.635 115.77 190.43 115.77C185.226 115.77 181.007 119.989 181.007 125.193C181.007 130.398 185.226 134.617 190.43 134.617Z" fill="#424344"/>
<path d="M193.692 125.193C205.903 125.193 215.802 115.295 215.802 103.084C215.802 90.8733 205.903 80.9746 193.692 80.9746C181.482 80.9746 171.583 90.8733 171.583 103.084C171.583 115.295 181.482 125.193 193.692 125.193Z" fill="#424344"/>
<path d="M173.757 96.9225C178.962 96.9225 183.181 92.7034 183.181 87.4988C183.181 82.2943 178.962 78.0752 173.757 78.0752C168.553 78.0752 164.333 82.2943 164.333 87.4988C164.333 92.7034 168.553 96.9225 173.757 96.9225Z" fill="#424344"/>
<path d="M169.408 106.346C174.613 106.346 178.832 102.127 178.832 96.9222C178.832 91.7177 174.613 87.4985 169.408 87.4985C164.203 87.4985 159.984 91.7177 159.984 96.9222C159.984 102.127 164.203 106.346 169.408 106.346Z" fill="#424344"/>
<path d="M167.958 115.77C173.163 115.77 177.382 111.551 177.382 106.346C177.382 101.141 173.163 96.9224 167.958 96.9224C162.754 96.9224 158.535 101.141 158.535 106.346C158.535 111.551 162.754 115.77 167.958 115.77Z" fill="#424344"/>
<path d="M169.408 128.093C174.613 128.093 178.832 123.874 178.832 118.669C178.832 113.465 174.613 109.246 169.408 109.246C164.203 109.246 159.984 113.465 159.984 118.669C159.984 123.874 164.203 128.093 169.408 128.093Z" fill="#424344"/>
<path d="M177.382 134.617C182.586 134.617 186.806 130.398 186.806 125.193C186.806 119.989 182.586 115.77 177.382 115.77C172.177 115.77 167.958 119.989 167.958 125.193C167.958 130.398 172.177 134.617 177.382 134.617Z" fill="#424344"/>
<path d="M185.998 121.057C191.338 131.79 206.716 129.424 206.716 129.424L185.998 121.057Z" fill="#EFB68F"/>
<path d="M189.249 138.938C189.249 138.938 171.709 148.946 168.311 152.152C168.311 152.152 199.078 174.222 231.134 139.117C227.803 137.848 227.258 137.878 222.882 136.888C217.235 135.609 209.29 133.95 204.964 133.756L189.249 138.938Z" fill="#E8E8E8"/>
<path d="M205.786 129.529L206.088 137.54L189.637 140.029L183.178 120.297L187.091 119.546L205.786 129.529Z" fill="#E8E8E8"/>
<path d="M178.155 116.375C179.189 118.263 180.989 119.668 183.177 120.297C189.376 122.022 189.312 114.583 186.24 111.782C182.585 108.443 175.393 111.303 178.155 116.375Z" fill="#E8E8E8"/>
<path d="M186.383 140.986C190.037 146.183 196.623 148.275 202.24 146.188C207.054 144.4 210.439 139.806 210.882 134.469C212.866 133.897 216.596 133.102 221.197 133.839C225.839 134.581 229.156 136.528 230.862 137.698L246.094 227.708L192.465 236.06L167.837 152.564C169.851 150.875 172.09 148.253 174.892 146.524C179.077 143.941 183.039 142.19 186.383 140.986Z" fill="#3F3F3F"/>
<path d="M260.007 251.15C256.924 257.024 247.285 259.243 244.815 260.333C244.053 260.669 241.518 261.211 236.466 262.375C232.574 263.272 228.51 264.13 224.216 264.945C221.734 265.416 219.291 265.852 216.891 266.252C210.745 267.278 211.05 266.222 208.427 266.402C204.743 266.654 204.878 267.959 196.476 263.048C190.097 255.617 191.073 236.222 189.625 226.427L244.042 215.576C248.558 224.006 252.273 240.194 260.007 251.15Z" fill="#996CF4"/>
<path d="M256.808 383.759L264.404 356.579L253.7 353.3L246.095 380.442L256.808 383.759Z" fill="#AD4328"/>
<path d="M244.737 380.858L242.765 389.595H277.48V389.34C277.48 387.328 276.323 385.495 274.506 384.63L258.395 378.201C257.816 377.925 257.071 377.937 256.63 378.402C254.548 380.6 252.261 384.179 245.905 380.296C245.444 380.014 244.84 380.327 244.737 380.858Z" fill="#996CF4"/>
<path d="M277.48 389.594H242.765V391.887H277.48V389.594Z" fill="#E8E8E8"/>
<path d="M271.86 293.103C277.495 289.447 279.166 281.953 275.619 276.249L253.754 241.1C249.627 234.466 240.478 231.784 233.423 235.141C231.795 236.72 229.099 239.748 227.322 244.35C225.324 249.524 225.497 254.071 225.745 256.384C235.785 267.879 245.826 279.375 255.866 290.87C259.9 295.489 266.715 296.441 271.86 293.103Z" fill="#996CF4"/>
<path d="M235.025 389.595L264.404 380.599L277.807 281.263C276.982 274.504 270.801 269.717 264.05 270.609C257.201 271.514 252.458 277.902 253.571 284.72L235.025 389.595Z" fill="#996CF4"/>
<path d="M142.933 381.169L156.819 356.6L166.698 361.866L152.846 386.414L142.933 381.169Z" fill="#AD4328"/>
<path d="M197.563 303.909L176.941 295.461L196.34 243.584C199.121 236.347 207.301 232.801 214.484 235.719C214.884 235.881 216.29 236.476 217.859 237.72C217.859 237.72 220.841 240.106 222.212 243.613C223.729 247.494 222.775 251.518 221.708 254.649C219.109 262.278 210.431 280.461 197.563 303.909Z" fill="#996CF4"/>
<path d="M167.957 395.886L138.543 378.018L183.677 277.649C186.177 271.315 193.365 268.238 199.673 270.801C206.073 273.401 209.056 280.777 206.263 287.095L167.957 395.886Z" fill="#996CF4"/>
<path d="M158.132 386.995L157.044 395.885L124.36 384.186L124.446 383.947C125.124 382.052 126.831 380.716 128.833 380.514L146.168 379.891C146.806 379.826 147.504 380.088 147.762 380.676C148.982 383.447 149.929 387.587 157.222 386.073C157.751 385.963 158.214 386.461 158.132 386.995Z" fill="#996CF4"/>
<path d="M123.591 386.347L156.275 398.046L157.048 395.887L124.364 384.188L123.591 386.347Z" fill="#E8E8E8"/>
<path d="M205.786 129.53C205.333 130.56 204.599 131.693 203.377 132.286C199.539 134.148 193.814 129.257 191.513 127.292C189.07 125.205 187.288 122.995 185.997 121.058C187.155 122.318 188.619 123.666 205.786 129.53Z" fill="#ACACAC"/>
<path d="M178.54 95.016C183.213 86.3685 196.549 82.4153 204.428 87.013C208.003 89.0993 209.491 92.3841 211.686 97.2301C212.357 98.7116 217.213 109.844 213.469 121.675C212.019 126.253 210.287 127.762 209.017 128.498C206.457 129.982 203.653 129.513 201.077 129.139C195.855 128.379 192.266 125.86 190.947 124.912C184.646 120.382 172.393 106.389 178.54 95.016Z" fill="#E8E8E8"/>
<path d="M178.086 113.058C179.339 113.058 180.354 112.042 180.354 110.789C180.354 109.536 179.339 108.521 178.086 108.521C176.832 108.521 175.817 109.536 175.817 110.789C175.817 112.042 176.832 113.058 178.086 113.058Z" fill="#424344"/>
<path d="M180.44 113.783C181.38 113.783 182.141 113.021 182.141 112.081C182.141 111.142 181.38 110.38 180.44 110.38C179.5 110.38 178.739 111.142 178.739 112.081C178.739 113.021 179.5 113.783 180.44 113.783Z" fill="#424344"/>
<path d="M182.141 114.917C182.767 114.917 183.275 114.409 183.275 113.783C183.275 113.156 182.767 112.648 182.141 112.648C181.514 112.648 181.006 113.156 181.006 113.783C181.006 114.409 181.514 114.917 182.141 114.917Z" fill="#424344"/>
<path d="M177.383 109.834C178.784 109.834 179.92 108.698 179.92 107.297C179.92 105.896 178.784 104.76 177.383 104.76C175.981 104.76 174.846 105.896 174.846 107.297C174.846 108.698 175.981 109.834 177.383 109.834Z" fill="#424344"/>
<path d="M176.861 105.621C178.263 105.621 179.399 104.485 179.399 103.084C179.399 101.682 178.263 100.546 176.861 100.546C175.46 100.546 174.324 101.682 174.324 103.084C174.324 104.485 175.46 105.621 176.861 105.621Z" fill="#424344"/>
<path d="M177.539 101.634C178.941 101.634 180.077 100.498 180.077 99.0972C180.077 97.696 178.941 96.5601 177.539 96.5601C176.138 96.5601 175.002 97.696 175.002 99.0972C175.002 100.498 176.138 101.634 177.539 101.634Z" fill="#424344"/>
<path d="M178.832 98.2979C180.234 98.2979 181.37 97.162 181.37 95.7608C181.37 94.3596 180.234 93.2236 178.832 93.2236C177.431 93.2236 176.295 94.3596 176.295 95.7608C176.295 97.162 177.431 98.2979 178.832 98.2979Z" fill="#424344"/>
<path d="M181.006 94.7477C182.408 94.7477 183.543 93.6117 183.543 92.2105C183.543 90.8093 182.408 89.6733 181.006 89.6733C179.605 89.6733 178.469 90.8093 178.469 92.2105C178.469 93.6117 179.605 94.7477 181.006 94.7477Z" fill="#424344"/>
<path d="M183.544 92.2105C184.945 92.2105 186.081 91.0746 186.081 89.6734C186.081 88.2721 184.945 87.1362 183.544 87.1362C182.142 87.1362 181.006 88.2721 181.006 89.6734C181.006 91.0746 182.142 92.2105 183.544 92.2105Z" fill="#424344"/>
<path d="M186.411 90.0357C187.812 90.0357 188.948 88.8998 188.948 87.4986C188.948 86.0973 187.812 84.9614 186.411 84.9614C185.01 84.9614 183.874 86.0973 183.874 87.4986C183.874 88.8998 185.01 90.0357 186.411 90.0357Z" fill="#424344"/>
<path d="M188.948 87.4986C190.349 87.4986 191.485 86.3627 191.485 84.9615C191.485 83.5602 190.349 82.4243 188.948 82.4243C187.547 82.4243 186.411 83.5602 186.411 84.9615C186.411 86.3627 187.547 87.4986 188.948 87.4986Z" fill="#424344"/>
<path d="M193.693 86.774C195.094 86.774 196.23 85.6381 196.23 84.2369C196.23 82.8356 195.094 81.6997 193.693 81.6997C192.291 81.6997 191.155 82.8356 191.155 84.2369C191.155 85.6381 192.291 86.774 193.693 86.774Z" fill="#424344"/>
<path d="M197.679 87.4986C199.081 87.4986 200.217 86.3627 200.217 84.9615C200.217 83.5602 199.081 82.4243 197.679 82.4243C196.278 82.4243 195.142 83.5602 195.142 84.9615C195.142 86.3627 196.278 87.4986 197.679 87.4986Z" fill="#424344"/>
<path d="M201.297 88.4239C202.698 88.4239 203.834 87.288 203.834 85.8868C203.834 84.4855 202.698 83.3496 201.297 83.3496C199.896 83.3496 198.76 84.4855 198.76 85.8868C198.76 87.288 199.896 88.4239 201.297 88.4239Z" fill="#424344"/>
<path d="M205.112 88.4239C206.513 88.4239 207.649 87.288 207.649 85.8868C207.649 84.4855 206.513 83.3496 205.112 83.3496C203.711 83.3496 202.575 84.4855 202.575 85.8868C202.575 87.288 203.711 88.4239 205.112 88.4239Z" fill="#424344"/>
<path d="M208.593 90.961C209.994 90.961 211.13 89.8251 211.13 88.4239C211.13 87.0226 209.994 85.8867 208.593 85.8867C207.192 85.8867 206.056 87.0226 206.056 88.4239C206.056 89.8251 207.192 90.961 208.593 90.961Z" fill="#424344"/>
<path d="M213.983 98.2947L186.084 110.202H186.077L184.928 109.26L213.842 96.9233L213.983 98.2947Z" fill="#FCBDEB"/>
<path opacity="0.06" d="M213.983 98.2947L186.084 110.202H186.077L184.928 109.26L213.842 96.9233L213.983 98.2947Z" fill="#FCBDEB"/>
<path d="M214.874 106.991L206.952 110.789L203.834 109.245L202.025 113.241L193.344 116.118L186.086 110.201L213.984 98.2944L214.874 106.991Z" fill="#DAA4CB"/>
<path opacity="0.14" d="M193.409 107.076L193.344 116.118L199.723 114.004V104.325L193.409 107.076Z" fill="white"/>
<path opacity="0.14" d="M206.951 101.277V110.789L212.756 108.005V98.8633L206.951 101.277Z" fill="white"/>
<path d="M180.66 113.694L187.669 111.492L184.929 109.26L178.086 112.082C178.213 112.079 178.833 112.078 179.353 112.559C179.83 113.001 180.646 113.553 180.66 113.694Z" fill="#FCBDEB"/>
<path opacity="0.15" d="M180.66 113.694L187.669 111.492L184.929 109.26L178.086 112.082C178.213 112.079 178.833 112.078 179.353 112.559C179.83 113.001 180.646 113.553 180.66 113.694Z" fill="#191919"/>
<path d="M205.476 120.284L223.958 125.993L275.07 208.124C281.889 219.082 296.775 221.576 306.793 213.438L353.992 175.098L313.147 140.783L289.223 186.441L234.394 120.419C231.98 117.511 228.185 116.133 224.468 116.812L205.476 120.284Z" fill="#7762A3"/>
<path d="M255.461 163.864C254.916 165.407 255.245 166.29 255.245 166.29C253.983 167.151 253.797 168.782 254.838 169.86L255.575 170.624C256.538 171.621 258.206 171.778 259.375 170.982L259.442 170.937C260.26 170.823 264.718 170.128 266.966 166.344C268.397 163.935 269.036 160.101 267.497 159.088C266.168 158.214 263.22 159.448 260.643 162.367L261.558 159.699C261.674 159.361 261.529 158.994 261.2 158.793C260.846 158.576 260.372 158.608 260.061 158.868L257.592 160.932C256.624 161.74 255.86 162.737 255.461 163.864Z" fill="#E8E8E8"/>
<path d="M254.301 167.479L216.739 188.781C213.503 190.645 212.87 194.627 215.394 197.235C217.675 199.592 221.654 199.888 224.323 197.9L257.992 171.473L254.301 167.479Z" fill="#F7C6A4"/>
<path d="M175.205 172.671C182.535 178.267 190.195 185.831 210.459 197.054C212.606 198.243 216.673 200.429 220.763 199.414C222.661 198.943 223.987 197.926 224.81 197.138C224.664 196.018 224.273 194.256 223.106 192.33C221.617 189.873 219.614 188.386 218.48 187.658C206.689 177.597 194.898 167.537 183.107 157.477C179.593 154.696 174.224 155.001 171.375 158.143C168.724 161.068 171.883 170.135 175.205 172.671Z" fill="#343434"/>
<path d="M218.48 187.658C210.947 181.741 205.513 176.269 201.929 172.344C197.97 168.01 193.909 162.982 186.626 156.152C178.819 148.829 175.453 147.074 172.821 148.017C171.008 148.667 167.951 151.143 166.519 154.654C166.401 154.942 166.318 155.168 166.268 155.305C163.724 162.279 171.981 169.831 174.118 172.241C182.536 181.737 213.207 199.537 216.875 200.635C216.875 200.635 220.4 201.837 225.599 198.367C230.799 194.897 260.007 182.352 260.007 182.352C260.007 182.352 258.634 171.249 252.924 168.26L218.48 187.658Z" fill="#3F3F3F"/>
<path d="M188.757 137.338L181.956 142.985L199.723 151.068L201.173 146.378L188.757 137.338Z" fill="#343434"/>
<path d="M201.172 146.378L205.787 133.808L210.883 134.469L207.111 148.724L201.172 146.378Z" fill="#343434"/>
<path opacity="0.18" d="M218.48 187.658C210.947 181.741 205.513 176.269 201.929 172.344C197.97 168.01 193.909 162.982 186.626 156.152C178.819 148.829 175.453 147.074 172.821 148.017C171.008 148.667 167.951 151.143 166.519 154.654C166.401 154.942 166.318 155.168 166.268 155.305C163.724 162.279 171.981 169.831 174.118 172.241C182.536 181.737 213.207 199.537 216.875 200.635C216.875 200.635 220.4 201.837 225.599 198.367C230.799 194.897 260.007 182.352 260.007 182.352C260.007 182.352 258.634 171.249 252.924 168.26L218.48 187.658Z" fill="black"/>
<path opacity="0.1" d="M188.757 137.338L181.956 142.985L199.723 151.068L201.173 146.378L188.757 137.338Z" fill="#343434"/>
<path opacity="0.1" d="M201.172 146.378L205.787 133.808L210.883 134.469L207.111 148.724L201.172 146.378Z" fill="#343434"/>
<path opacity="0.12" d="M313.147 140.783C313.147 140.783 314.512 179.187 353.993 175.098L313.147 140.783Z" fill="black"/>
<path opacity="0.12" d="M240.767 128.093L237.614 130.708L242.942 137.339L246.094 134.507L240.767 128.093Z" fill="black"/>
<path opacity="0.12" d="M250.452 139.58L247.299 142.195L252.627 148.826L255.779 145.995L250.452 139.58Z" fill="black"/>
<path opacity="0.12" d="M258.92 149.754L255.767 152.37L261.094 159L264.247 156.169L258.92 149.754Z" fill="black"/>
<path opacity="0.11" d="M282.977 209.977C282.977 209.977 294.988 217.717 304.863 208.109C314.738 198.5 330.485 179.284 330.485 179.284L348.1 177.625C338.318 183.83 331.305 189.938 326.615 194.497C324.933 196.131 314.398 206.462 302.46 213.447C300.878 214.372 297.924 216.028 294.053 215.849C288.52 215.593 284.577 211.748 282.977 209.977Z" fill="white"/>
<path d="M326.904 164.257C327.037 158.897 327.601 153.499 329.127 148.306C329.9 145.719 330.928 143.191 332.311 140.848C333.694 138.509 335.451 136.366 337.574 134.639C338.635 133.776 339.778 133.018 340.984 132.369C342.195 131.728 343.476 131.224 344.789 130.843C347.42 130.079 350.163 129.842 352.859 129.853C355.561 129.858 358.238 130.07 360.9 130.21C363.561 130.348 366.218 130.421 368.846 130.183C374.112 129.806 379.175 127.852 383.486 124.823L385.074 123.645C385.585 123.228 386.077 122.786 386.579 122.358C386.827 122.139 387.086 121.934 387.323 121.704L388.026 121.004C388.489 120.533 388.972 120.08 389.422 119.595L390.729 118.1L391.383 117.351L391.988 116.562L393.198 114.983C393.406 114.725 393.59 114.449 393.774 114.172L394.33 113.347C397.314 108.95 399.745 104.189 401.871 99.3056L403.405 95.6135C403.898 94.3749 404.336 93.1141 404.803 91.8655L405.494 89.9879L406.115 88.0848L407.356 84.2783L408.012 84.4758L406.805 88.3112L406.202 90.2293L405.527 92.1242C405.07 93.3847 404.643 94.6568 404.16 95.908L402.654 99.6417C400.533 104.572 398.095 109.388 395.085 113.859L394.523 114.699C394.338 114.98 394.151 115.261 393.941 115.525L392.716 117.135L392.103 117.94L391.44 118.705L390.112 120.235C389.655 120.732 389.163 121.198 388.69 121.681L387.974 122.399C387.732 122.635 387.467 122.847 387.214 123.073C386.7 123.514 386.198 123.968 385.674 124.398L384.045 125.616C381.826 127.175 379.42 128.484 376.872 129.436C374.333 130.414 371.635 130.978 368.935 131.206C363.511 131.68 358.151 130.858 352.857 130.823C350.212 130.801 347.566 131.026 345.05 131.747C343.794 132.107 342.572 132.582 341.416 133.189C340.264 133.804 339.167 134.525 338.15 135.347C336.113 136.991 334.417 139.041 333.071 141.299C331.723 143.561 330.714 146.023 329.942 148.553C328.393 153.625 327.775 158.959 327.589 164.278L326.904 164.257Z" fill="#E2E2E2"/>
<path d="M331.545 167.729C331.66 164.933 331.912 162.136 332.378 159.364C332.839 156.594 333.498 153.844 334.462 151.181C335.435 148.526 336.729 145.959 338.447 143.666C338.664 143.382 338.868 143.087 339.097 142.811L339.815 142.008C340.06 141.746 340.282 141.461 340.547 141.218L341.34 140.486L341.738 140.12C341.868 139.995 342.004 139.877 342.152 139.774L343.018 139.126C343.585 138.678 344.2 138.298 344.821 137.929C347.319 136.46 350.178 135.63 353.034 135.353C355.898 135.062 358.749 135.247 361.54 135.516C364.335 135.789 367.09 136.166 369.838 136.349C372.583 136.541 375.326 136.525 378.007 136.125C380.686 135.703 383.314 134.946 385.816 133.878L387.666 133.014C388.278 132.715 388.858 132.351 389.455 132.023L390.346 131.519L391.198 130.95L392.903 129.808C397.331 126.571 401.153 122.532 404.589 118.209L405.857 116.566L406.491 115.745C406.7 115.469 406.888 115.178 407.087 114.895L409.452 111.475C410.908 109.115 412.428 106.79 413.749 104.344L414.782 102.533L415.299 101.628L415.78 100.703L417.702 96.9991C418.364 95.7744 418.927 94.5008 419.531 93.2465L421.337 89.4785L421.847 89.6999C419.671 94.8431 417.384 99.9532 414.712 104.876C413.434 107.369 411.938 109.742 410.51 112.155L408.18 115.662C407.982 115.952 407.797 116.251 407.59 116.534L406.961 117.38L405.704 119.073C402.306 123.55 398.399 127.699 393.851 131.108L392.087 132.307L391.202 132.901L390.274 133.432C389.651 133.777 389.047 134.157 388.408 134.472L386.471 135.384C383.846 136.514 381.083 137.322 378.252 137.773C375.411 138.189 372.54 138.191 369.726 137.986C366.908 137.784 364.132 137.409 361.378 137.113C358.627 136.821 355.88 136.624 353.183 136.873C350.494 137.12 347.862 137.837 345.514 139.154C344.931 139.487 344.35 139.83 343.815 140.24L342.995 140.83C342.854 140.923 342.725 141.031 342.602 141.146L342.224 141.482L341.467 142.154C341.213 142.377 341.001 142.643 340.766 142.886L340.075 143.629C339.854 143.886 339.656 144.162 339.445 144.428C337.775 146.569 336.49 149.014 335.489 151.569C333.464 156.693 332.578 162.233 332.101 167.761L331.545 167.729Z" fill="#E2E2E2"/>
<path d="M336.399 171.223C336.493 169.763 336.599 168.301 336.777 166.845L336.913 165.752L337.082 164.664C337.185 163.936 337.332 163.216 337.468 162.493C338.04 159.607 338.872 156.753 340.083 154.032C341.301 151.321 342.919 148.742 345.035 146.565C347.14 144.387 349.775 142.667 352.701 141.705C354.16 141.222 355.677 140.925 357.195 140.783C358.715 140.642 360.235 140.663 361.733 140.765C364.733 140.977 367.644 141.524 370.518 142.013C373.391 142.505 376.234 142.987 379.075 143.13C380.494 143.196 381.908 143.218 383.309 143.063C384.011 143.006 384.715 142.968 385.407 142.826L386.45 142.652C386.796 142.586 387.149 142.558 387.488 142.455L389.542 141.939C389.888 141.867 390.219 141.739 390.554 141.625L391.558 141.28L392.562 140.935C392.896 140.819 393.214 140.655 393.541 140.517L395.489 139.656C396.127 139.342 396.744 138.982 397.373 138.647C397.993 138.296 398.641 137.995 399.227 137.582L401.026 136.412C401.324 136.215 401.629 136.028 401.922 135.823L402.783 135.178C407.427 131.799 411.567 127.72 415.426 123.396C423.023 114.615 429.49 104.842 435.498 94.8032C434.16 97.4043 432.847 100.024 431.447 102.598L429.263 106.414L428.166 108.321C427.796 108.955 427.392 109.567 427.006 110.191L424.643 113.907C424.261 114.535 423.819 115.123 423.404 115.729L422.141 117.536L420.873 119.342C420.454 119.947 419.976 120.509 419.53 121.094C418.618 122.251 417.727 123.424 416.797 124.568L413.891 127.91C413.42 128.48 412.879 128.987 412.364 129.518L410.804 131.098L410.024 131.888C409.762 132.15 409.475 132.386 409.202 132.637L407.542 134.121C406.465 135.143 405.25 136.012 404.083 136.937L403.201 137.623C402.9 137.842 402.581 138.038 402.271 138.247L400.399 139.479C399.79 139.912 399.109 140.237 398.459 140.61C397.8 140.967 397.154 141.348 396.483 141.683L394.425 142.609C394.08 142.757 393.745 142.931 393.39 143.057L392.322 143.433L391.254 143.807C390.898 143.931 390.546 144.067 390.175 144.149L387.977 144.711C387.614 144.818 387.233 144.849 386.861 144.918L385.739 145.098C384.994 145.243 384.236 145.282 383.48 145.339C381.97 145.494 380.451 145.462 378.951 145.382C375.946 145.203 373.008 144.71 370.129 144.16C367.25 143.613 364.41 143.029 361.574 142.778C358.746 142.531 355.91 142.623 353.243 143.418C351.911 143.811 350.632 144.379 349.43 145.094L348.557 145.676L348.119 145.966C347.971 146.059 347.827 146.159 347.696 146.276L346.88 146.942L346.47 147.274C346.339 147.39 346.218 147.519 346.091 147.641C344.039 149.576 342.398 151.957 341.102 154.517C339.784 157.075 338.837 159.831 338.089 162.639C337.907 163.343 337.715 164.045 337.567 164.758L337.328 165.825L337.12 166.899C336.829 168.329 336.608 169.775 336.399 171.223Z" fill="#E2E2E2"/>
<path d="M108.634 274.923C107.032 273.68 104.371 273.168 102.424 273.073C101.401 273.024 101.275 273.233 100.771 272.491C100.302 271.801 100.289 270.16 100.117 269.331C99.6817 267.231 99.2458 265.132 98.8104 263.033C103.432 260.177 106.895 255.504 108.283 250.252C109.67 245 108.967 239.225 106.359 234.46C105.528 232.941 104.198 231.359 102.469 231.455C101.175 231.527 100.139 232.535 99.3506 233.562C96.8496 236.821 95.5406 240.886 95.1448 244.974C94.749 249.062 95.2245 253.19 96.0145 257.221C96.09 257.605 96.167 258.011 96.0388 258.381C95.9002 258.782 95.5483 259.065 95.2126 259.324C90.3419 263.084 85.0998 266.873 82.5241 272.461C80.9957 275.777 80.5379 279.576 81.2348 283.16C81.9528 286.853 83.9821 290.387 87.1603 292.4C89.2424 293.719 91.6925 294.332 94.1265 294.72C97.2077 295.211 100.395 295.368 103.423 294.615C103.771 296.457 104.067 298.309 104.296 300.17C104.476 301.638 104.659 303.133 104.726 304.621C104.747 305.097 104.71 305.56 104.71 306.033C104.614 307.004 104.235 307.962 103.712 308.78C103.479 309.145 103.212 309.487 102.915 309.802C102.015 310.754 100.882 311.459 99.6878 311.981C98.8374 312.353 97.9207 312.581 96.9924 312.625C96.5258 312.648 96.0569 312.623 95.5957 312.548C95.5583 312.542 95.5148 312.534 95.4755 312.528C97.3208 311.531 98.589 309.603 98.589 307.359C98.589 304.102 95.9487 301.462 92.692 301.462C89.4353 301.462 86.7949 304.102 86.7949 307.359C86.7949 308.346 87.0606 309.263 87.4895 310.08L87.4552 310.07C87.5388 310.231 87.6377 310.37 87.7286 310.521C87.7651 310.579 87.7956 310.639 87.8341 310.696C90.9241 315.576 97.7005 315.309 97.7005 315.309C98.5259 315.347 99.4014 315.17 100.194 314.967C101.965 314.513 103.627 313.625 104.91 312.312C105.522 311.686 106.043 310.972 106.466 310.206C106.813 309.578 107.12 308.92 107.282 308.217C107.508 307.243 107.437 306.246 107.342 305.26C107.124 302.971 106.699 300.708 106.247 298.448C106.14 297.913 106.034 297.379 105.927 296.844C105.736 295.89 105.545 294.935 105.354 293.98C105.344 293.932 105.335 293.883 105.325 293.835C105.325 293.835 110.999 292.181 112.181 287.216C112.181 287.216 114.426 279.414 108.634 274.923ZM98.4681 239.528C100.783 236.408 105.784 237.792 106.141 241.661C106.141 241.661 106.845 247.208 102.015 252.7C101.23 253.771 99.5604 255.402 97.6138 257.157L97.0329 254.399C96.9909 254.196 96.9632 253.681 96.9316 253.477C96.418 250.172 96.3318 245.43 96.6436 243.594C97.0567 241.159 98.4681 239.528 98.4681 239.528ZM89.0999 290.307C86.686 288.258 84.9285 285.309 84.7768 282.147C84.6024 278.514 86.5035 275.094 88.7815 272.259C91.0965 269.378 93.8628 266.861 96.9489 264.828C97.4787 267.121 98.0084 269.414 98.5378 271.707C98.6495 272.189 98.7573 272.715 98.5501 273.165C98.3242 273.656 97.794 273.913 97.3193 274.172C93.8347 276.07 91.6991 279.881 91.6278 283.815C91.6009 285.3 91.8242 286.838 92.615 288.094C93.4054 289.351 94.8538 290.267 96.3298 290.108C95.6954 290.176 94.6801 287.435 94.5392 286.969C94.1461 285.667 94.0657 284.265 94.3144 282.927C94.8422 280.09 96.9897 278.144 99.8911 277.873C100.934 282.573 102.143 288.153 103.125 293.046C103.13 293.07 103.135 293.094 103.14 293.118C98.3923 294.63 92.8991 293.531 89.0999 290.307ZM104.945 292.234L104.538 290.095C104.528 290.036 104.528 289.977 104.516 289.917L101.964 277.803C103.588 277.889 108.133 278.681 109.311 284.767C109.311 284.767 110.322 289.346 104.945 292.234Z" fill="#DAA4CB"/>
<path d="M325.948 286.489V253.091C325.948 252.942 325.826 252.821 325.677 252.821H324.483C324.333 252.821 324.212 252.942 324.212 253.091V283.776C322.447 282.898 319.751 283.058 317.21 284.379C313.68 286.214 311.798 289.585 313.006 291.907C314.213 294.23 318.054 294.626 321.583 292.79C324.529 291.258 325.961 288.65 325.948 286.489Z" fill="#DAA4CB"/>
<path d="M380.916 124.701V149.967C380.916 150.08 381.007 150.171 381.12 150.171H382.024C382.137 150.171 382.228 150.08 382.228 149.967V126.754C383.564 127.418 385.604 127.297 387.526 126.298C390.196 124.91 391.619 122.36 390.706 120.603C389.792 118.846 386.887 118.547 384.217 119.935C381.988 121.094 380.905 123.067 380.916 124.701Z" fill="#DAA4CB"/>
<path d="M356.012 117.502V117.513L344.81 119.795C344.722 119.813 344.659 119.89 344.659 119.979V121.453V122.948V134.098C343.84 133.691 342.589 133.765 341.41 134.378C339.772 135.23 338.899 136.794 339.46 137.872C340.02 138.949 341.802 139.133 343.44 138.281C344.807 137.57 345.704 136.36 345.698 135.358V122.873C345.698 122.794 345.753 122.726 345.83 122.711L355.814 120.685C355.916 120.664 356.012 120.742 356.012 120.847V131.261C355.193 130.853 353.942 130.927 352.763 131.541C351.125 132.392 350.252 133.956 350.813 135.034C351.373 136.112 353.155 136.295 354.793 135.444C356.16 134.733 356.991 133.527 356.904 132.52H356.912V117.558C356.912 117.44 356.804 117.351 356.688 117.373L356.012 117.502Z" fill="#DAA4CB"/>
<path d="M417.354 62.5745C415.872 61.8499 414.908 60.4524 414.38 58.9262C414.161 58.2933 414.01 57.6373 413.914 56.9747C413.87 56.6782 413.852 54.6712 413.833 54.3721C413.817 54.1265 413.839 53.835 413.753 53.6017C413.591 53.1578 412.655 52.8995 412.218 53.0265C411.88 53.1251 411.878 53.5613 411.897 53.8454C411.927 54.2805 411.93 56.4176 411.928 56.855C411.925 57.7347 411.922 58.6148 411.92 59.4949C411.916 60.646 411.912 61.7972 411.908 62.9483C411.903 64.2747 411.899 65.601 411.894 66.9277C411.89 68.3333 411.885 69.7394 411.88 71.145C411.875 72.5341 411.87 73.9235 411.866 75.3126C411.862 76.5897 411.857 77.8663 411.853 79.1434C411.849 80.2117 411.845 81.2805 411.842 82.3489C411.839 83.1131 411.836 83.8777 411.834 84.6419C411.833 85.0061 411.832 85.3704 411.83 85.7346C411.83 85.7384 411.826 85.7846 411.83 85.7865C409.961 84.8568 407.104 85.0254 404.413 86.4249C400.674 88.3691 398.681 91.9396 399.96 94.3998C401.239 96.8603 404.473 97.3981 408.212 95.4543C411.332 93.8315 413.38 91.0687 413.366 88.7803V66.3421C417.93 66.2027 422.16 71.7248 422.16 71.7248C426.42 79.2254 419.512 86.6982 419.512 86.6982C419.054 88.115 419.99 87.8159 419.99 87.8159C422.433 86.344 425.27 81.6986 425.27 81.6986C431.803 70.7827 417.354 62.5745 417.354 62.5745Z" fill="#DAA4CB"/>
<path d="M113.712 150.17H110.884H94.5806V153.122V153.717V172.6C93.3017 171.964 91.3478 172.08 89.5067 173.037C86.9492 174.367 85.5855 176.81 86.4606 178.493C87.3357 180.176 90.1185 180.462 92.6761 179.132C94.8105 178.022 96.2115 176.132 96.2019 174.567V154.292H110.885H112.309V172.555C111.03 171.919 109.076 172.034 107.235 172.991C104.678 174.321 103.314 176.764 104.189 178.447C105.064 180.13 107.847 180.416 110.405 179.086C112.539 177.976 113.836 176.093 113.7 174.521H113.712V154.292H130.956V172.601C129.677 171.965 127.723 172.081 125.882 173.038C123.324 174.368 121.961 176.81 122.836 178.494C123.711 180.177 126.494 180.463 129.051 179.133C131.186 178.023 132.587 176.133 132.577 174.568V154.293V151.384V150.171H113.712V150.17Z" fill="#DAA4CB"/>
<path d="M282.924 98.7681C282.854 98.5521 282.773 98.3396 282.685 98.1293C283.409 96.2713 283.019 94.776 283.019 94.776C282.936 94.5161 282.834 94.2616 282.724 94.0099C283.395 92.1992 283.019 90.7578 283.019 90.7578C282.091 87.8602 279.407 85.4555 276.824 83.8528C274.7 82.5345 273.741 82.1931 273.113 80.1864C273.094 80.0401 273.065 79.8892 273.016 79.756C273.005 79.7275 272.986 79.7033 272.969 79.6786C272.968 79.6752 272.967 79.6721 272.966 79.6686C272.966 79.6702 272.965 79.6713 272.965 79.6732C272.772 79.4114 272.208 79.3429 271.911 79.4295C271.658 79.5031 271.671 79.8014 271.671 80.0417C271.671 80.094 271.673 80.1491 271.673 80.2026L271.623 103.884C270.226 103.189 268.09 103.381 266.078 104.428C263.283 105.881 261.792 108.55 262.749 110.39C263.705 112.229 266.746 112.542 269.541 111.089C271.874 109.876 272.782 107.873 272.771 106.162V92.3963C273.43 92.7844 273.494 92.8618 274.526 93.3342C278.221 95.0255 282.532 99.5488 281.028 103.63C280.828 104.173 280.211 105.196 279.941 105.707C279.326 106.866 280.912 106.553 281.548 105.618C282.968 103.529 283.684 101.143 282.924 98.7681ZM274.622 85.3239C278.482 86.5905 281.064 88.2037 281.649 92.0706C281.649 92.0706 281.651 92.1049 281.654 92.1634C280.387 90.4259 278.582 88.9621 276.824 87.8703C275.087 86.7923 274.062 86.2687 273.395 85.0047C273.679 85.0886 274.039 85.1325 274.622 85.3239ZM276.729 91.8627C275.371 91.0199 273.982 89.9758 272.943 88.7954C273.332 89.105 273.697 89.0384 274.623 89.3421C278.483 90.6088 281.065 92.2219 281.65 96.0888C281.65 96.0888 281.653 96.1693 281.661 96.2994C280.39 94.4992 278.535 92.9842 276.729 91.8627Z" fill="#DAA4CB"/>
<path d="M301.867 204.002L302.751 211.386L307.766 211.958L302.751 212.531L301.867 219.914L300.983 212.531L295.969 211.958L300.983 211.386L301.867 204.002Z" fill="white"/>
<path d="M256.664 137.467L257.548 144.85L262.562 145.422L257.548 145.995L256.664 153.378L255.78 145.995L250.765 145.422L255.78 144.85L256.664 137.467Z" fill="white"/>
<path d="M347.874 175.859L346.214 183.108L350.741 185.339L345.828 184.185L342.503 190.837L344.164 183.588L339.637 181.357L344.55 182.511L347.874 175.859Z" fill="white"/>
<path opacity="0.67" d="M191.09 102.604L192.268 108.715L196.488 108.894L192.336 109.671L192.039 115.888L190.86 109.776L186.64 109.597L190.792 108.82L191.09 102.604Z" fill="white"/>
</svg>
